Patient4_TMGait_0pt6_01_right_25_EMG.mot
version=1
nRows=30
nColumns=33
inDegrees=no
endheader
time	1LAddLong	2LGlutMax	3LGlutMed	4LIliopsoas	5LSemiMemb	6LBicFemLong	7LRecFem	8LVastMed	9LVastLat	10LGasMed	11LTibAnt	12lTibPost	13LPeroneusLong	14LSol	15LExtDigLong	16LFlexDigLong	17RAddLong	18RGlutMax	19RGlutMed	20RIliopsoas	21RSemiMemb	22RBicFemLong	23RRecFem	24RVastMed	25RVastLat	26RGasMed	27RTibAnt	28RTibPost	29RPeroneusLong	30RSol	31RExtDigLong	32RFlexDigLong
31.098	0.017395	0.028229	-0.13779	0.010071	0.01297	-0.054016	0.16739	0.003204	-0.055237	0.015106	0.068512	0.011749	0.016327	-0.11154	-0.26337	-0.032501	-0.047913	-0.059052	0.079346	0.072174	-0.07782	-0.061951	-0.051422	-0.058594	0.007935	-0.008392	0.067902	-0.006561	0.37964	0.10407	-0.002441	-0.010986
31.099	0.021362	0.057678	-0.11154	-0.004272	0.021667	-0.037689	0.00351	0.012512	-0.011292	-0.035095	0.001984	0.025177	-0.013733	-0.084381	-0.076294	-0.041351	-0.094147	-0.042877	-0.052643	0.043945	0.066986	-0.049744	-0.068817	-0.020599	0.013733	-0.010071	0.019531	-0.006561	0.3331	0.12619	0.000916	-0.005951
31.1	0.019989	0.036163	-0.089569	0.0177	0.024414	-0.00824	-0.030823	0.020142	-0.050812	0.26581	0.055695	0.006561	-0.058899	-0.029297	0.03479	-0.040283	-0.11902	-0.045319	-0.029297	0.040283	0.024872	-0.038147	-0.058441	-0.042114	0.013885	-0.006866	-0.041962	-0.002289	0.20462	0.034637	-0.008087	-0.005493
31.101	0.019073	-0.006561	-0.024261	-0.007019	0.021667	0.003204	-0.14084	0.019073	-0.057983	0.47379	0.034485	-0.003204	-0.10651	0.060425	0.13275	0.03952	-0.084381	-0.068207	0.02243	-0.037842	0.022888	-0.006561	-0.013428	-0.007324	0.009003	0.000916	0.044861	0.001373	0.14832	0.013733	-0.006409	-0.004272
31.102	0.020447	-0.015869	0.054474	0.01358	0.024567	0.000305	-0.022736	0.001678	0.059967	0.40161	-0.003052	-0.008087	-0.14603	-0.078735	0.22888	0.065002	-0.03418	-0.024261	0.37552	0.009613	0.008392	0.020599	-0.006256	-0.031586	0.028076	-0.006104	0.044708	0.001526	-0.003662	0.065918	-0.005341	-0.008087
31.103	-0.029144	-0.024109	0.07431	0.001526	0.026855	0.03006	0.18753	-0.000916	0.10529	0.20859	-0.064392	0.006714	-0.12085	-0.096588	0.3305	-0.006714	-0.028992	-0.0737	0.28366	0.012665	-0.001373	0.010071	-0.003204	-0.057526	0.026093	-0.007324	0.15839	-0.000305	-0.067902	0.053711	0.003204	-0.003662
31.104	-0.04303	-0.044098	-0.032196	0.018005	0.013428	0.036774	0.15427	0.00824	0.081787	-0.17151	0.054169	0.011292	-0.14771	-0.009613	0.83572	-1.6676	0.013733	-0.078888	0.12909	-0.059509	-0.005493	0.011444	-0.026703	-0.08316	0.028076	-0.005493	0.21133	-0.000153	-0.016632	-0.016479	-0.004578	-0.002289
31.105	-0.021667	-0.013428	-0.11566	0.0177	0.024261	0.069885	0.14252	0.007477	0.14587	-0.22751	0.18433	0.019684	-0.11108	0.18646	0.84824	0.57571	0.00061	-0.073547	0.23941	-0.064392	-0.001526	-0.021667	-0.085144	-0.07843	0.047607	0.011597	0.21637	-0.000305	-0.023956	-0.092163	-0.007019	-0.006866
31.106	-0.006866	-0.028534	-0.15381	-0.007477	0.029297	0.053101	0.18631	-0.000763	0.35614	-0.27206	-0.058441	0.026398	0.099182	0.38116	-0.16937	1.3509	-0.044098	-0.094299	0.37476	-0.0383	0.014954	-0.065613	-0.024414	-0.06012	0.027924	-0.00061	-0.033417	-0.000458	-0.072479	-0.14267	-0.002136	-0.003052
31.107	-0.002594	-0.016479	-0.039368	0.00824	0.000763	0.068054	0.2092	-0.002441	0.28717	-0.19089	-0.08316	0.016022	0.14969	0.49027	-0.39658	-0.12955	-0.038605	-0.084534	0.3273	-0.025787	0.036011	-0.11017	-0.037842	-0.068207	0.007935	-0.001526	-0.26642	0.00061	-0.087128	-0.12482	-0.004883	-0.008698
31.108	0.004883	0.050049	-0.067139	0.016937	-0.054474	0.030823	0.17716	-0.010529	0.13306	-0.040741	-0.043945	0.006104	0.037537	0.34119	-0.49149	-0.28381	-0.046234	-0.054321	-0.001678	0.032349	0.020294	-0.082245	0.027161	-0.066986	0.011292	0.003204	-0.27145	0.000153	-0.12573	-0.12329	-0.006714	-0.007477
31.109	-0.006561	0.0383	0.031281	0.004883	-0.045776	-0.024719	0.2153	-0.011292	-0.12589	0.001068	0.02533	0.006561	-0.053558	0.242	-0.62592	0.38971	-0.036316	-0.003662	-0.084991	0.046082	-0.016327	-0.012512	-0.021515	-0.036163	0.029144	0.01358	-0.19959	0.000763	-0.27802	-0.14465	-0.006104	-0.005646
31.11	0.009155	0.007324	-0.036316	0.006104	-0.042419	-0.011597	0.22644	-0.003204	-0.24506	-0.04425	-0.012512	0.012817	-0.013428	0.2269	-0.67474	0.090027	-0.045624	-0.033569	-0.081482	0.058594	-0.079651	0.099182	-0.040436	0.015106	0.0177	0.012207	-0.000305	-0.002136	-0.20737	-0.11917	-0.002441	-0.013275
31.111	0.01236	0.001068	-0.10666	0.008698	0.018005	-0.011749	0.18738	-0.00351	-0.19348	-0.07019	-0.074005	0.007782	-0.038147	0.027313	-0.53406	0.20645	-0.018311	0.039825	0.056	0.007019	-0.13016	0.091705	-0.062714	-0.029755	0.014648	0.006866	0.16068	0.003204	0.31799	-0.064392	-0.003052	-0.010986
31.112	0.012665	0.003662	-0.045166	0.010986	-0.011902	0.026703	0.14099	0.008087	-0.13565	-0.086975	-0.066681	0.00824	-0.11047	-0.15945	-0.38559	0.22293	0.001831	0.011597	0.112	-0.044403	-0.14328	0.040894	-0.033417	-0.052338	0.029297	0.005188	0.14511	-0.004272	0.46555	-0.024567	-0.003967	-0.013733
31.113	0.011292	0.041656	-0.05188	0.030823	-0.023499	0.025787	0.1503	0.00824	-0.10986	-0.050964	0.01236	0.000916	-0.12726	-0.1532	-0.097351	0.085144	0.020294	-0.013275	0.046082	-0.030212	-0.25726	0.020294	-0.060425	-0.06546	0.025177	0.008087	0.1561	-0.000153	0.36697	0.00351	-0.004883	-0.014038
31.114	0.01297	0.035553	-0.032043	0.011444	0.012054	-0.017853	0.20905	0.002289	-0.088654	0.13809	0.060577	-0.006714	-0.10681	-0.24765	-0.063629	-0.46265	0.016022	-0.032043	-0.061035	-0.039978	-0.20691	0.090332	-0.054474	-0.10086	0.01358	-0.003357	0.093994	-0.001221	0.06012	-0.018616	-0.003357	-0.00946
31.115	0.015411	0.065308	-0.057678	0.006714	0.070801	-0.009308	0.20691	0.00946	-0.074463	0.26794	0.012665	-0.007935	0.046692	-0.1178	0.052338	-0.27802	0.033722	-0.06012	-0.27329	-0.017548	-0.3801	0.074615	-0.074921	-0.085754	0.022125	-0.007172	0.075531	-0.00061	-0.19684	-0.004425	-0.006561	-0.010071
31.116	0.01358	0.068665	-0.011902	-0.000458	0.055237	0.00824	0.19058	0.013428	-0.03418	0.86182	-0.041046	-0.003204	0.19333	-0.1796	0.12787	-0.042114	0.056763	-0.011292	-0.31616	0.007629	-0.02182	0.10086	-0.070953	-0.092316	0.029602	0.001221	0.14999	-0.000458	-0.05249	0.004578	-0.004425	-0.006561
31.117	0.016022	0.016479	0.043488	-0.004425	0.024719	-0.006104	0.18646	0.015411	-0.08255	0.82764	-0.070496	0.010376	0.1033	-0.43228	0.11887	-0.29419	-0.018158	-0.012207	-0.18234	0.020905	0.2594	0.088959	-0.10529	0.014038	0.02655	-0.004883	0.040741	-0.001068	0.22201	0.034485	-0.001526	-0.005341
31.118	0.012207	0.022278	-0.018005	0.016479	0.018311	0.003967	0.18936	0.020599	-0.12985	-0.13351	-0.040741	0.031433	0.00885	-0.57007	0.103	0.65628	-0.084686	-0.029144	-0.20493	0.007935	0.26718	0.023804	-0.12802	0.063324	0.051727	-0.001373	0.046692	0.00061	0.13245	0.007324	0	-0.007935
31.119	0.013885	-0.023651	-0.0737	0.002136	0.025024	-0.034332	0.23041	0.001526	-0.10056	-0.49728	-0.054474	0.033875	0.024261	-0.19592	0.13199	0.078888	-0.083008	-0.05722	0.034637	-0.013275	0.21561	0.26779	-0.059814	0.043793	0.047913	0.001831	0.067291	0.000458	0.07843	-0.032959	0.00061	-0.001831
31.12	0.009918	-0.053253	-0.044556	0.002136	0.029907	-0.035553	0.24841	-0.00412	-0.10986	-0.43137	-0.053101	0.02243	0.040131	-0.056763	0.067596	0.11627	-0.054626	0.004272	0.079346	-0.004272	0.14862	0.15121	-0.053864	0.037842	0.021973	0.010834	0.075989	0.00061	0.018921	-0.088654	-0.00061	-0.000305
31.121	0.01236	-0.027771	-0.065613	0.014191	0.022583	-0.010834	0.22018	0.000916	-0.10132	-0.38757	0.20462	0.01709	0.003204	0.09964	0.036011	-0.11643	-0.028229	-0.025177	-0.008698	0.011749	0.085297	-0.010376	-0.013275	-0.028229	0.00885	-0.000916	0.084839	-0.000763	-0.072174	-0.065918	-0.002136	0.000305
31.122	0.007629	-0.050201	-0.13275	0.021057	0.02182	-0.00824	0.14099	-0.000458	-0.028687	-0.31296	0.30182	0.005188	-0.04303	0.22903	0.00946	-0.057983	-0.014496	-0.056	-0.11734	0.056763	0.11993	-0.10422	0.01358	-0.02121	0.00885	-0.004425	0.061493	-0.000153	-0.22934	-0.00885	-0.002136	0.006714
31.123	0.015564	-0.033722	-0.19211	0.021667	0.010529	-0.017242	0.10819	0.005035	0.067139	-0.20981	0.26947	-0.010529	-0.028687	0.2095	0.41428	0.054779	0.003357	-0.054932	-0.19165	-0.051575	0.13611	-0.11871	-0.072479	-0.008392	0.007172	-0.00473	0.043945	-0.001984	-0.18768	-0.02121	-0.000458	0.001984
31.124	0.0177	-0.088959	-0.32059	0.012665	0.003357	-0.018311	0.11475	0.006409	-0.014191	-0.065308	0.079956	-0.01297	-0.02655	0.20996	0.042572	0.000153	-0.000153	-0.036316	-0.21805	-0.13809	-0.072632	0.006866	-0.023956	-0.073242	0.024567	0.006866	0.04425	0.000916	-0.099335	-0.025482	-0.005341	0.000458
31.125	0.013733	-0.038452	-0.26779	-0.003967	-0.001678	-0.001831	0.063629	0.008545	-0.055237	0.056458	-0.077057	-0.006866	-0.049133	0.11902	0.41306	-0.054779	0.009918	-0.022583	-0.15915	-0.14191	-0.15137	0.037689	-0.041504	-0.055847	0.015869	0.000153	0.046082	0.001526	-0.014648	-0.02594	-0.001373	-0.005035
31.126	0.024719	0.034485	-0.23453	-0.005493	0.019226	0.013885	0.069885	-0.002136	-0.098724	0.079956	0.030518	0.000763	-0.06485	0.064545	0.28748	-0.062256	0.016632	-0.024872	-0.17303	-0.056152	-0.112	-0.027924	-0.020905	-0.067291	0.013275	-0.000153	0.063629	0.001373	-0.071716	-0.031433	-0.001221	-0.00885
31.127	0.015106	0.028687	-0.20401	-0.001068	0.012207	0.045471	0.11871	-0.009613	0.015564	0.095673	-0.12222	-0.00473	-0.022278	0.00824	-0.040588	-0.051575	0.016632	-0.051575	-0.20523	0.15182	-0.06134	-0.027924	-0.017242	-0.0383	0.00473	0.006409	0.0737	0.003052	-0.11643	-0.065765	-0.00351	-0.009308
